<?xml version="1.0" encoding="UTF-8"?><svg xmlns="http://www.w3.org/2000/svg" viewBox="0 0 597.049 181.228"><g id="a"/><g id="b"/><g id="c"/><g id="d"><g id="e"/></g><g id="f"/><g id="g"/><g id="h"/><g id="i"><g id="j"/></g><g id="k"/><g id="l"/><g id="m"/><g id="n"><g id="o"/></g><g id="p"/><g id="q"/><g id="r"><g><path d="M185.098,54.275c6.771,0,12.113,1.741,16.027,5.22,3.913,3.48,5.87,8.038,5.87,13.67s-1.957,10.211-5.87,13.65c-3.914,3.44-9.257,5.159-16.027,5.159h-9.993v13.122l6.337,1.219v7.109h-24.496v-7.109l6.297-1.219V62.644l-6.297-1.219v-7.15h28.152Zm-9.993,28.56h9.993c3.305,0,5.803-.9,7.496-2.702,1.691-1.801,2.539-4.096,2.539-6.886,0-2.844-.848-5.193-2.539-7.048-1.693-1.854-4.191-2.783-7.496-2.783h-9.993v19.419Z" style="fill:#3e6182;"/><path d="M242.643,107.859c-1.408,2.059-3.148,3.643-5.221,4.753-2.071,1.11-4.435,1.666-7.089,1.666-4.631,0-8.261-1.483-10.888-4.448-2.627-2.966-3.94-7.577-3.94-13.833v-18.159l-4.834-1.219v-7.15h16.696v26.609c0,3.196,.535,5.491,1.605,6.886,1.069,1.395,2.66,2.092,4.773,2.092,1.868,0,3.486-.305,4.854-.914,1.367-.609,2.484-1.483,3.352-2.621v-23.684l-5.2-1.219v-7.15h17.062v35.628l5.322,1.219v7.109h-15.723l-.771-5.565Z" style="fill:#3e6182;"/><path d="M265.535,106.315l5.688-1.219v-27.259l-6.297-1.219v-7.15h17.347l.528,6.418c1.029-2.275,2.356-4.048,3.981-5.322,1.625-1.272,3.507-1.909,5.646-1.909,.623,0,1.28,.047,1.971,.142,.69,.095,1.266,.21,1.727,.345l-1.26,10.806-4.875-.122c-1.733,0-3.169,.339-4.306,1.016-1.138,.677-2.005,1.639-2.601,2.884v21.369l5.688,1.219v7.109h-23.237v-7.109Z" style="fill:#3e6182;"/><path d="M297.201,57.2v-7.15h18.159v36.725h2.641l6.825-9.628-3.859-.528v-7.15h21.612v7.15l-5.199,1.178-7.922,10.887,11.09,16.697,4.51,.935v7.109h-20.312v-7.109l2.438-.406-6.744-10.888h-5.078v10.075l5.119,1.219v7.109h-22.669v-7.109l5.729-1.219V58.418l-6.338-1.219Z" style="fill:#3e6182;"/><path d="M395.533,76.619l-4.104,.609-16.169,42.778c-1.273,3.169-2.973,5.823-5.098,7.963-2.127,2.139-5.329,3.209-9.608,3.209-1.002,0-1.943-.081-2.823-.244-.881-.163-1.916-.393-3.107-.69l1.381-8.653c.379,.054,.771,.108,1.178,.163,.406,.054,.758,.081,1.057,.081,1.977,0,3.494-.481,4.55-1.442,1.057-.962,1.869-2.16,2.438-3.595l1.341-3.332-13.935-36.197-4.103-.65v-7.15h21.531v7.15l-4.916,.812,6.013,17.55,.609,3.169,.243,.041,6.947-20.759-4.956-.812v-7.15h21.531v7.15Z" style="fill:#3e6182;"/><path d="M399.452,106.315l5.688-1.219v-27.259l-6.297-1.219v-7.15h17.347l.528,6.297c1.463-2.248,3.264-3.995,5.403-5.241,2.139-1.246,4.536-1.869,7.19-1.869,4.441,0,7.908,1.395,10.4,4.184,2.491,2.79,3.737,7.164,3.737,13.122v19.134l5.688,1.219v7.109h-22.669v-7.109l5.078-1.219v-19.094c0-2.952-.596-5.044-1.787-6.276-1.192-1.232-2.993-1.849-5.403-1.849-1.571,0-2.979,.319-4.225,.955-1.246,.637-2.289,1.538-3.129,2.702v23.562l4.794,1.219v7.109h-22.344v-7.109Zm22.547-49.887l5.362-5.687h10.075v.69l-11.375,10.359h-8.125l-11.415-10.4v-.65h10.115l5.362,5.687Z" style="fill:#3e6182;"/><path d="M452.487,57.2v-7.15h18.159v36.725h2.641l6.825-9.628-3.859-.528v-7.15h21.612v7.15l-5.199,1.178-7.922,10.887,11.09,16.697,4.51,.935v7.109h-20.312v-7.109l2.438-.406-6.744-10.888h-5.078v10.075l5.119,1.219v7.109h-22.669v-7.109l5.729-1.219V58.418l-6.338-1.219Z" style="fill:#3e6182;"/><path d="M533.309,113.425c-.325-.731-.609-1.483-.853-2.255-.244-.771-.434-1.55-.569-2.336-1.408,1.625-3.122,2.939-5.139,3.941-2.019,1.001-4.327,1.503-6.927,1.503-4.307,0-7.726-1.171-10.258-3.514-2.533-2.342-3.799-5.531-3.799-9.567,0-4.117,1.652-7.299,4.957-9.547,3.304-2.248,8.151-3.372,14.543-3.372h6.054v-4.306c0-2.112-.609-3.751-1.828-4.916-1.219-1.164-3.021-1.747-5.403-1.747-1.354,0-2.56,.156-3.615,.467-1.057,.312-1.91,.685-2.56,1.117l-.772,4.712h-8.938l.041-9.75c2.166-1.462,4.651-2.694,7.455-3.697,2.803-1.001,5.855-1.503,9.16-1.503,5.444,0,9.865,1.334,13.265,4.001,3.398,2.668,5.099,6.466,5.099,11.396v18.159c0,.677,.006,1.314,.02,1.909,.014,.596,.062,1.165,.143,1.707l3.615,.487v7.109h-13.69Zm-10.278-7.922c1.788,0,3.413-.386,4.875-1.158,1.463-.772,2.601-1.74,3.413-2.905v-6.703h-6.054c-2.519,0-4.428,.589-5.728,1.767s-1.95,2.594-1.95,4.246c0,1.49,.48,2.654,1.442,3.494,.961,.84,2.295,1.259,4.001,1.259Z" style="fill:#3e6182;"/></g><g><polygon points="106.896 127.172 95.034 131.447 95.034 49.05 106.896 44.775 106.896 127.172" style="fill:#5187b5;"/><polygon points="91.9 117.501 80.037 121.776 80.037 39.379 91.9 35.104 91.9 117.501" style="fill:#77afe0;"/><polygon points="76.904 114.168 65.041 118.443 65.041 36.045 76.904 31.771 76.904 114.168" style="fill:#aad4f3;"/><polygon points="61.912 127.172 50.05 131.447 50.05 49.05 61.912 44.775 61.912 127.172" style="fill:#5481aa;"/></g><rect width="597.049" height="181.228" style="fill:none;"/></g><g id="s"><g id="t"/></g></svg>